# xmcd
#
# Track frame offsets: 
#        150
#        23648
#        39333
#        68538
#        84600
#        98680
#        113978
#        130868
#        148133
#
# Disc length: 2213 seconds
#
# Revision: 2
# Processed by: cddbd v1.5.2PL0 Copyright (c) Steve Scherf et al.
# Submitted via: ExactAudioCopy v1.3
#
DISCID=6f08a309
DTITLE=Donna Summer - Fun Street
DYEAR=1995
DGENRE=Disco
TTITLE0=Fun Street
TTITLE1=Shout It Out
TTITLE2=They Can`t Take Away Our Musik
TTITLE3=Nice To See You
TTITLE4=Little Marie
TTITLE5=Back Of Boogaloo
TTITLE6=Jeannie
TTITLE7=Na Na, Hey Hey (Kiss Him Goodbye)
TTITLE8=Do What Mother Do
EXTD=
EXTT0=
EXTT1=
EXTT2=
EXTT3=
EXTT4=
EXTT5=
EXTT6=
EXTT7=
EXTT8=
PLAYORDER=
